<mxfile host="app.diagrams.net" modified="2023-10-16T18:36:39.212Z" agent="Mozilla/5.0 (Windows NT 10.0; Win64; x64) AppleWebKit/537.36 (KHTML, like Gecko) Chrome/118.0.0.0 Safari/537.36" etag="XFJmyijtMC37F_SV1kvy" version="21.2.3" type="device">
  <diagram name="Page-1" id="p96CrVO1GNaF59l0t8Ho">
    <mxGraphModel dx="988" dy="548" grid="1" gridSize="10" guides="1" tooltips="1" connect="1" arrows="1" fold="1" page="1" pageScale="1" pageWidth="850" pageHeight="1100" math="0" shadow="0">
      <root>
        <mxCell id="0" />
        <mxCell id="1" parent="0" />
        <mxCell id="X9ttglirbqzohFgh4f3p-1" value="SINoALICE Server" style="shape=cylinder3;whiteSpace=wrap;html=1;boundedLbl=1;backgroundOutline=1;size=15;" vertex="1" parent="1">
          <mxGeometry x="10" y="290" width="90" height="130" as="geometry" />
        </mxCell>
        <mxCell id="X9ttglirbqzohFgh4f3p-2" value="SINoALICE DB Updater" style="rounded=0;whiteSpace=wrap;html=1;" vertex="1" parent="1">
          <mxGeometry x="240" y="325" width="120" height="60" as="geometry" />
        </mxCell>
        <mxCell id="X9ttglirbqzohFgh4f3p-3" value="SINoALICE Tracker Website" style="rounded=0;whiteSpace=wrap;html=1;" vertex="1" parent="1">
          <mxGeometry x="480" y="495" width="120" height="60" as="geometry" />
        </mxCell>
        <mxCell id="X9ttglirbqzohFgh4f3p-5" value="SINoALICE Tracker DB" style="shape=cylinder3;whiteSpace=wrap;html=1;boundedLbl=1;backgroundOutline=1;size=15;" vertex="1" parent="1">
          <mxGeometry x="255" y="460" width="90" height="130" as="geometry" />
        </mxCell>
        <mxCell id="X9ttglirbqzohFgh4f3p-6" value="" style="endArrow=classic;html=1;rounded=0;" edge="1" parent="1" source="X9ttglirbqzohFgh4f3p-1" target="X9ttglirbqzohFgh4f3p-2">
          <mxGeometry width="50" height="50" relative="1" as="geometry">
            <mxPoint x="290" y="580" as="sourcePoint" />
            <mxPoint x="340" y="530" as="targetPoint" />
          </mxGeometry>
        </mxCell>
        <mxCell id="X9ttglirbqzohFgh4f3p-7" value="Pull data using API" style="edgeLabel;html=1;align=center;verticalAlign=middle;resizable=0;points=[];" vertex="1" connectable="0" parent="X9ttglirbqzohFgh4f3p-6">
          <mxGeometry x="0.2412" relative="1" as="geometry">
            <mxPoint x="-17" as="offset" />
          </mxGeometry>
        </mxCell>
        <mxCell id="X9ttglirbqzohFgh4f3p-8" value="" style="endArrow=classic;html=1;rounded=0;" edge="1" parent="1" source="X9ttglirbqzohFgh4f3p-2" target="X9ttglirbqzohFgh4f3p-5">
          <mxGeometry width="50" height="50" relative="1" as="geometry">
            <mxPoint x="290" y="580" as="sourcePoint" />
            <mxPoint x="340" y="530" as="targetPoint" />
          </mxGeometry>
        </mxCell>
        <mxCell id="X9ttglirbqzohFgh4f3p-9" value="Format, process, and insert data into own DB" style="edgeLabel;html=1;align=center;verticalAlign=middle;resizable=0;points=[];" vertex="1" connectable="0" parent="X9ttglirbqzohFgh4f3p-8">
          <mxGeometry x="-0.2065" y="-1" relative="1" as="geometry">
            <mxPoint as="offset" />
          </mxGeometry>
        </mxCell>
        <mxCell id="X9ttglirbqzohFgh4f3p-10" value="" style="endArrow=classic;html=1;rounded=0;" edge="1" parent="1" source="X9ttglirbqzohFgh4f3p-5" target="X9ttglirbqzohFgh4f3p-3">
          <mxGeometry width="50" height="50" relative="1" as="geometry">
            <mxPoint x="290" y="580" as="sourcePoint" />
            <mxPoint x="340" y="530" as="targetPoint" />
          </mxGeometry>
        </mxCell>
        <mxCell id="X9ttglirbqzohFgh4f3p-11" value="Display data from DB" style="edgeLabel;html=1;align=center;verticalAlign=middle;resizable=0;points=[];" vertex="1" connectable="0" parent="X9ttglirbqzohFgh4f3p-10">
          <mxGeometry x="0.0749" relative="1" as="geometry">
            <mxPoint x="-7" as="offset" />
          </mxGeometry>
        </mxCell>
      </root>
    </mxGraphModel>
  </diagram>
</mxfile>
